<svg width="22" height="22" viewBox="0 0 22 22" fill="none" xmlns="http://www.w3.org/2000/svg">
<path d="M2.0625 5.67188H19.9375C20.3172 5.67188 20.625 5.36409 20.625 4.98438V3.26562C20.625 2.88591 20.3172 2.57812 19.9375 2.57812H2.0625C1.68279 2.57812 1.375 2.88591 1.375 3.26562V4.98438C1.375 5.36409 1.68279 5.67188 2.0625 5.67188ZM2.0625 12.5469H19.9375C20.3172 12.5469 20.625 12.2391 20.625 11.8594V10.1406C20.625 9.76091 20.3172 9.45312 19.9375 9.45312H2.0625C1.68279 9.45312 1.375 9.76091 1.375 10.1406V11.8594C1.375 12.2391 1.68279 12.5469 2.0625 12.5469ZM2.0625 19.4219H19.9375C20.3172 19.4219 20.625 19.1141 20.625 18.7344V17.0156C20.625 16.6359 20.3172 16.3281 19.9375 16.3281H2.0625C1.68279 16.3281 1.375 16.6359 1.375 17.0156V18.7344C1.375 19.1141 1.68279 19.4219 2.0625 19.4219Z" fill="#B42B2D"/>
</svg>
